<svg width="210" height="414" viewBox="0 0 210 414" fill="none" xmlns="http://www.w3.org/2000/svg">
<g filter="url(#filter0_d_364_49)">
<path d="M20 97.3487C20 84.063 25.8709 71.4562 36.0397 62.906L74.3395 30.7027C90.7368 16.9154 114.58 16.5995 131.337 29.9475L172.681 62.8808C183.4 71.4188 189.644 84.3754 189.644 98.0788V318.474C189.644 332.801 182.822 346.271 171.273 354.749L129.891 385.128C113.695 397.017 91.5802 396.729 75.6988 384.423L37.437 354.775C26.4376 346.252 20 333.119 20 319.204V97.3487Z" fill="url(#paint0_linear_364_49)"/>
<path d="M75.3047 31.8506C91.1554 18.5229 114.204 18.2181 130.402 31.1211L171.747 64.0537C182.108 72.3071 188.144 84.8326 188.144 98.0791V318.475C188.143 332.323 181.549 345.345 170.386 353.54L129.004 383.918C113.348 395.411 91.9692 395.133 76.6172 383.237L38.3555 353.59C27.7227 345.351 21.5 332.655 21.5 319.204V97.3486C21.5 84.5057 27.175 72.3189 37.0049 64.0537L75.3047 31.8506Z" stroke="#957933" stroke-width="3"/>
</g>
<g clip-path="url(#clip0_364_49)">
<path d="M121.892 51.5773C120.845 50.0378 119.792 48.5061 118.752 46.9563C117.366 44.8904 115.958 42.8538 114.618 40.7246C112.761 37.7743 111.24 34.4373 109.887 30.9181C109.646 30.2913 109.39 29.6783 109.072 29.1132C109.151 29.3633 109.225 29.6178 109.311 29.8618C111.178 35.1639 113.538 39.8978 116.434 44.0157C117.967 46.1939 119.479 48.4028 121.004 50.5904C121.266 50.9656 121.553 51.3033 121.829 51.6579C121.85 51.6313 121.871 51.6043 121.892 51.5773Z" fill="#1E3A8A"/>
<path d="M118.287 59.0538C114.844 54.1706 111.792 48.8356 109.809 42.2612C111.531 49.1298 114.641 54.4007 118.287 59.0538Z" fill="#1E3A8A"/>
<path d="M128.519 52.3086C128.376 50.9802 124.176 43.2133 122.719 41.5763C123.686 43.349 124.647 45.1282 125.621 46.8922C126.605 48.6751 127.48 50.5928 128.519 52.3086Z" fill="#1E3A8A"/>
<path d="M110.457 26.0688C110.563 26.1573 110.675 26.234 110.774 26.3348C112.201 27.7847 113.303 29.7125 114.393 31.6519C115.249 33.1753 116.069 34.7437 116.906 36.2907C116.965 36.4008 117.035 36.4977 117.184 36.4964C116.547 35.2226 115.94 33.9099 115.264 32.6839C114.319 30.971 113.344 29.292 112.334 27.6635C111.939 27.0276 111.419 26.5598 110.946 26.0345C110.848 25.9259 110.703 25.9035 110.581 25.8416C110.539 25.917 110.498 25.9929 110.457 26.0688Z" fill="#1E3A8A"/>
<path d="M116.486 46.7931C114.741 43.6524 112.892 40.3234 111.163 37.2113C111.492 38.6005 114.887 45.0712 116.486 46.7931Z" fill="#1E3A8A"/>
<path d="M125.684 63.6126C124.13 61.7137 122.576 59.8143 121.108 58.0212C121.891 59.8347 124.79 63.5292 125.684 63.6126Z" fill="#1E3A8A"/>
<path d="M115.747 32.2478C114.753 29.6997 113.332 27.4902 112.765 27.4476C113.74 29.0172 114.743 30.6321 115.747 32.2478Z" fill="#1E3A8A"/>
<path d="M124.797 64.0425C126.013 63.8016 127.218 63.5743 128.405 62.9668C129.724 62.2916 130.412 60.7913 130.394 58.6922C130.38 57.1203 130.113 55.675 129.596 54.3921C128.536 51.7577 127.76 48.9138 127.058 45.9973C125.618 40.0161 122.819 35.7287 119.319 32.329C117.274 30.3434 115.007 28.9105 112.796 27.339C110.532 25.7316 108.32 24.0105 106.242 21.974C105.835 21.5747 105.407 21.2003 104.954 20.9118C104.365 20.5375 104.026 20.8993 104.003 21.8746C103.994 22.25 104.004 22.6431 104.076 22.9862C104.974 27.2794 105.405 31.7973 106.09 36.1927C107.341 44.2181 109.962 50.9493 113.891 56.4719C116.091 59.5639 118.605 61.9624 121.582 63.3626C122.61 63.8458 123.687 64.0621 124.797 64.0425ZM104.483 21.1665C104.727 21.315 104.983 21.4193 105.199 21.6111C105.921 22.2543 106.626 22.9351 107.342 23.5905C109.945 25.97 112.748 27.8637 115.534 29.7926C117.11 30.8837 118.598 32.1595 120.007 33.6118C122.065 35.7318 123.799 38.327 125.184 41.4163C126.118 43.4995 126.719 45.848 127.272 48.2299C127.641 49.8196 128.059 51.3657 128.638 52.7942C128.962 53.5927 129.244 54.432 129.529 55.2657C129.916 56.395 130.106 57.6328 130.084 58.9524C130.058 60.5693 129.59 61.7703 128.59 62.3689C127.217 63.1896 125.803 63.5389 124.393 63.575C123.336 63.6019 122.327 63.2659 121.36 62.7678C118.611 61.3509 116.259 59.1007 114.19 56.2244C109.672 49.9419 106.969 42.09 105.909 32.7802C105.631 30.3478 105.263 27.9511 104.906 25.5528C104.76 24.5743 104.523 23.6408 104.349 22.6749C104.268 22.2247 104.215 21.7478 104.483 21.1665Z" fill="#1E3A8A"/>
<path d="M72.5976 63.5064C74.1574 61.3692 75.7228 59.2413 77.2755 57.0915C79.3457 54.2256 81.4367 51.3956 83.463 48.4522C86.2706 44.3737 88.7429 39.8275 91.0451 35.0623C91.4554 34.2135 91.8811 33.3812 92.373 32.6042C92.2299 32.941 92.0927 33.2828 91.9424 33.6123C88.6812 40.7719 84.9293 47.2445 80.6407 52.9723C78.372 56.0022 76.1222 59.07 73.8597 62.1112C73.4715 62.6329 73.0597 63.1084 72.6591 63.6046C72.638 63.5723 72.6175 63.5393 72.5976 63.5064Z" fill="#1E3A8A"/>
<path d="M75.5682 72.8728C80.6633 66.0796 85.3697 58.7395 89.0098 49.9004C85.6304 59.0948 80.8671 66.3573 75.5682 72.8728Z" fill="#1E3A8A"/>
<path d="M64.4106 65.2252C64.8332 63.4689 71.3889 52.8114 73.4648 50.499C71.9584 52.9326 70.4574 55.3737 68.9446 57.7966C67.4156 60.2453 65.9945 62.8579 64.4106 65.2252Z" fill="#1E3A8A"/>
<path d="M91.2544 28.7694C91.1093 28.8974 90.9592 29.0107 90.8193 29.1543C88.8161 31.2181 87.1167 33.8703 85.4295 36.5364C84.1046 38.6303 82.8154 40.7791 81.5091 42.902C81.4162 43.053 81.3132 43.188 81.1321 43.2035C82.1452 41.4616 83.1275 39.6723 84.1784 37.9885C85.6472 35.636 87.1455 33.3243 88.6769 31.0748C89.275 30.1964 89.9943 29.5237 90.6675 28.7809C90.8068 28.6274 90.9862 28.5814 91.1471 28.486C91.1831 28.58 91.2185 28.6747 91.2544 28.7694Z" fill="#1E3A8A"/>
<path d="M80.0543 56.6133C82.7613 52.2984 85.631 47.7247 88.313 43.449C87.6529 45.3064 82.3189 54.1732 80.0543 56.6133Z" fill="#1E3A8A"/>
<path d="M65.7387 79.7125C67.9814 77.046 70.2248 74.3786 72.3428 71.8606C71.052 74.3261 66.8402 79.4999 65.7387 79.7125Z" fill="#1E3A8A"/>
<path d="M83.6742 37.4777C85.3582 34.0257 87.4977 30.9678 88.1946 30.8463C86.7165 33.0147 85.1955 35.2457 83.6742 37.4777Z" fill="#1E3A8A"/>
<path d="M66.7287 80.166C65.2974 79.9913 63.8772 79.833 62.5503 79.1747C61.0747 78.4431 60.5211 76.5579 60.9369 73.8067C61.2485 71.7465 61.844 69.8229 62.7113 68.083C64.4925 64.5104 65.9679 60.6962 67.3669 56.7956C70.2366 48.7959 74.4379 42.8575 79.3249 38.0002C82.1795 35.1633 85.2005 33.0245 88.1801 30.7106C91.229 28.3438 94.2373 25.8339 97.142 22.9264C97.7112 22.3565 98.3004 21.8167 98.9046 21.3865C99.6895 20.8282 100.033 21.2628 99.8791 22.5374C99.8196 23.0279 99.7331 23.544 99.5815 24.0016C97.6865 29.7279 96.3162 35.6944 94.6604 41.53C91.6371 52.1848 87.1928 61.3033 81.3871 68.9903C78.1368 73.294 74.6354 76.7258 70.7582 78.9038C69.4204 79.6556 68.0723 80.0635 66.7287 80.166ZM99.4292 21.6655C99.1045 21.8883 98.774 22.0545 98.4767 22.3306C97.4796 23.2566 96.4962 24.2295 95.5033 25.1707C91.8967 28.5882 88.1392 31.3923 84.3949 34.2408C82.2778 35.8518 80.2321 37.6949 78.2492 39.7597C75.3535 42.7742 72.7614 46.3734 70.5009 50.5794C68.9763 53.4156 67.8068 56.5607 66.6889 59.7439C65.943 61.8686 65.1449 63.9418 64.1742 65.8795C63.6317 66.9626 63.1317 68.0945 62.6288 69.2194C61.9475 70.7431 61.4855 72.3859 61.2638 74.1117C60.9923 76.2263 61.3351 77.7448 62.4374 78.4131C63.9498 79.3291 65.6014 79.6231 67.3066 79.5071C68.5838 79.4202 69.8727 78.8634 71.1392 78.0994C74.7423 75.9256 78.0202 72.7069 81.071 68.7006C87.7339 59.9505 92.4871 49.3549 95.5203 37.0399C96.3132 33.8224 97.2097 30.6411 98.0931 27.4588C98.4534 26.1605 98.9166 24.9105 99.3091 23.6254C99.4918 23.0265 99.6452 22.3958 99.4292 21.6655Z" fill="#1E3A8A"/>
<path d="M104.027 39.8277C103.963 41.0208 103.887 42.2157 103.837 43.4078C103.671 47.3341 102.873 51.1677 101.984 54.9843C100.94 59.4654 99.8113 63.9237 98.8233 68.419C98.2692 70.9402 97.9252 73.5183 97.4901 76.0716C97.4774 76.1479 97.5016 76.2304 97.5173 76.4105C97.7533 75.1091 97.9843 73.9138 98.1857 72.7143C98.8297 68.8732 99.7933 65.1213 100.714 61.3556C101.585 57.7938 102.425 54.2206 103.204 50.6326C103.92 47.3364 104.177 44.013 104.087 40.6995C104.079 40.4087 104.092 40.1133 104.096 39.8201C104.073 39.8222 104.05 39.8249 104.027 39.8277Z" fill="#1E3A8A"/>
<path d="M99.8085 85.3564C99.8139 81.801 100.054 78.2383 100.457 74.6777C100.856 71.1674 101.353 67.6618 101.764 64.4888C100.613 68.5269 98.9228 83.5936 99.8085 85.3564Z" fill="#1E3A8A"/>
<path d="M104.092 31.5929C105.652 39.8184 105.308 48.2968 103.624 56.9564C104.61 52.5427 105.216 48.0964 105.281 43.6346C105.341 39.4825 105.042 35.4269 104.092 31.5929Z" fill="#1E3A8A"/>
<path d="M95.895 55.1605C95.4141 55.7769 95.072 56.5179 94.8191 57.3032C94.2059 59.2075 93.6137 61.1243 93.0496 63.051C92.7399 64.1093 92.5038 65.1979 92.3305 66.3079C92.8739 64.4477 93.3825 62.5703 93.9711 60.7304C94.5683 58.8636 95.2439 57.0343 95.895 55.1605Z" fill="#1E3A8A"/>
<path d="M100.539 21.4816C100.133 22.015 100.162 22.5881 100.184 23.15C100.21 23.8287 100.252 24.5032 100.287 25.1801C100.424 27.8777 99.8001 30.4982 99.141 33.0936C98.0811 37.2642 96.5632 41.1943 94.8854 45.0289C93.0567 49.207 91.2818 53.4159 89.8046 57.8229C88.0408 63.0841 87.1193 68.4921 87.2489 73.9721C87.3735 79.2529 88.3142 84.172 90.3203 88.4468C91.2454 90.4179 92.4543 91.9954 93.9416 93.151C94.497 93.5832 95.0837 93.925 95.7756 93.9087C97.2334 93.875 98.3594 92.7858 98.9135 90.8063C99.3774 89.1479 99.7793 87.4238 99.793 85.7361C99.8228 82.044 100.872 78.669 102.011 75.2859C103.089 72.0865 104.208 68.9053 105.205 65.6685C106.073 62.8491 106.521 59.91 106.815 56.9606C107.428 50.7939 107.049 44.8524 106.172 39.0354C105.701 35.9043 105.209 32.7801 104.655 29.6883C104.306 27.744 103.773 25.8948 103.01 24.242C102.638 23.439 102.162 22.7304 101.69 22.0375C101.411 21.6312 101.043 21.3519 100.539 21.4816ZM100.672 21.9568C101.057 21.9519 101.341 22.1933 101.541 22.5371C102.05 23.4118 102.63 24.2439 102.983 25.2509C103.546 26.8593 104.019 28.5553 104.398 30.2895C104.8 32.1349 105.067 34.0605 105.361 35.9653C106.241 41.6632 106.964 47.4046 106.695 53.4657C106.496 57.9447 105.894 62.3542 104.546 66.6354C103.61 69.6077 102.562 72.5277 101.568 75.4721C100.454 78.7707 99.469 82.0775 99.4357 85.6708C99.4205 87.3306 99.0438 89.0254 98.5759 90.6537C97.9423 92.8581 96.4274 93.943 94.9467 93.1776C94.3146 92.8513 93.7252 92.3555 93.1826 91.8184C91.5062 90.1583 90.3271 87.9021 89.4914 85.2761C88.5625 82.3572 87.9495 79.2763 87.8471 75.9472C87.8075 74.665 87.8968 73.383 88.1274 72.0932C88.531 69.8381 89.3809 67.8302 90.3949 65.945C91.3091 64.245 92.2817 62.5965 93.2705 60.972C95.2155 57.7776 96.9554 54.4172 98.196 50.6553C99.3885 47.0389 100.242 43.3063 100.921 39.5237C101.445 36.6057 101.596 33.7065 101.323 30.8525C101.086 28.3853 100.805 25.9328 100.546 23.4725C100.495 22.983 100.458 22.4911 100.672 21.9568ZM100.558 28.3651C100.625 28.5433 100.697 28.6531 100.708 28.7826C100.849 30.4426 101.086 32.0874 101.093 33.7716C101.107 36.9553 100.617 40.1247 99.7823 43.2356C98.7592 47.0499 97.2786 50.5814 95.5648 53.9569C94.3038 56.441 92.9913 58.8784 91.7245 61.357C90.5482 63.6576 89.4408 66.0146 88.6871 68.6046C88.3267 69.8434 88.0246 71.107 87.6627 72.487C87.6499 72.1626 87.6259 71.962 87.6361 71.7597C87.7544 69.418 87.9503 67.0809 88.3776 64.7492C89.0257 61.2118 90.0811 57.8352 91.3605 54.5761C92.7466 51.0456 94.2236 47.5715 95.6949 44.0969C97.8072 39.1062 99.5185 33.9395 100.558 28.3651Z" fill="#1E3A8A"/>
</g>
<g clip-path="url(#clip1_364_49)">
<path d="M81.3355 364.117C82.531 365.529 83.7315 366.932 84.9207 368.355C86.5061 370.251 88.1102 372.116 89.6564 374.081C91.7987 376.803 93.6458 379.948 95.344 383.293C95.6466 383.889 95.9626 384.469 96.3354 384.995C96.2315 384.755 96.1326 384.511 96.0226 384.278C93.634 379.218 90.8133 374.78 87.5202 371.015C85.7782 369.023 84.0532 366.999 82.3167 364.997C82.0187 364.654 81.6994 364.351 81.3902 364.03C81.3715 364.058 81.3533 364.088 81.3355 364.117Z" fill="#1E3A8A"/>
<path d="M84.1697 356.273C88.0826 360.737 91.653 365.695 94.2842 372.006C91.8822 365.372 88.2618 360.485 84.1697 356.273Z" fill="#1E3A8A"/>
<path d="M74.6727 364.143C74.9481 365.448 79.9037 372.693 81.5166 374.155C80.3773 372.502 79.2427 370.842 78.0976 369.199C76.9404 367.538 75.8786 365.731 74.6727 364.143Z" fill="#1E3A8A"/>
<path d="M95.2634 388.179C95.1493 388.104 95.0303 388.04 94.9212 387.951C93.3578 386.672 92.0687 384.88 90.7901 383.076C89.7861 381.658 88.8138 380.192 87.8263 378.749C87.7561 378.647 87.6768 378.558 87.5285 378.576C88.2904 379.77 89.025 381.007 89.8204 382.149C90.9321 383.744 92.0698 385.303 93.2373 386.807C93.6933 387.395 94.2575 387.801 94.7809 388.269C94.8892 388.366 95.035 388.372 95.1634 388.419C95.1969 388.34 95.23 388.26 95.2634 388.179Z" fill="#1E3A8A"/>
<path d="M87.1902 368.259C89.24 371.184 91.413 374.283 93.4438 377.181C92.9772 375.837 88.9533 369.789 87.1902 368.259Z" fill="#1E3A8A"/>
<path d="M76.3573 352.582C78.0929 354.293 79.8292 356.005 81.4683 357.621C80.5077 355.907 77.255 352.563 76.3573 352.582Z" fill="#1E3A8A"/>
<path d="M89.3838 382.637C90.6272 385.058 92.2617 387.093 92.8304 387.071C91.7034 385.621 90.5437 384.13 89.3838 382.637Z" fill="#1E3A8A"/>
<path d="M77.1967 352.053C76.0116 352.431 74.8363 352.794 73.7172 353.533C72.4727 354.354 71.9394 355.924 72.1681 358.009C72.3396 359.571 72.7504 360.977 73.3924 362.194C74.7109 364.693 75.7678 367.432 76.7582 370.252C78.7901 376.036 82.0026 379.98 85.824 382.963C88.0562 384.704 90.4542 385.871 92.8107 387.182C95.2223 388.523 97.5944 389.983 99.8648 391.772C100.31 392.122 100.772 392.446 101.252 392.681C101.875 392.987 102.176 392.588 102.101 391.616C102.073 391.242 102.023 390.852 101.917 390.519C100.593 386.352 99.7118 381.909 98.5897 377.617C96.5411 369.78 93.2596 363.385 88.7988 358.341C86.3015 355.516 83.5615 353.417 80.4606 352.364C79.3907 352 78.2981 351.907 77.1967 352.053ZM101.695 392.375C101.437 392.255 101.172 392.18 100.939 392.014C100.156 391.456 99.3871 390.86 98.6089 390.29C95.7818 388.22 92.8052 386.655 89.8413 385.054C88.1655 384.148 86.558 383.049 85.0113 381.765C82.7527 379.891 80.7679 377.508 79.081 374.594C77.9434 372.629 77.1105 370.362 76.3219 368.057C75.7956 366.518 75.2243 365.028 74.5054 363.674C74.1036 362.917 73.7388 362.114 73.3714 361.318C72.8735 360.239 72.561 359.03 72.4496 357.715C72.3135 356.105 72.6581 354.857 73.5929 354.148C74.8753 353.176 76.2465 352.668 77.645 352.472C78.6926 352.325 79.7302 352.545 80.741 352.93C83.6165 354.026 86.1813 355.996 88.5268 358.621C93.6491 364.354 97.1239 371.853 99.1123 380.989C99.632 383.376 100.239 385.717 100.834 388.061C101.077 389.018 101.407 389.919 101.677 390.86C101.803 391.298 101.903 391.766 101.695 392.375Z" fill="#1E3A8A"/>
<path d="M129.152 346.652C127.815 348.954 126.472 351.248 125.144 353.562C123.373 356.647 121.578 359.698 119.858 362.855C117.476 367.23 115.474 372.031 113.663 377.031C113.34 377.921 113 378.797 112.589 379.625C112.697 379.274 112.8 378.919 112.916 378.574C115.44 371.085 118.522 364.223 122.211 358.04C124.163 354.77 126.092 351.464 128.037 348.183C128.37 347.62 128.732 347.1 129.081 346.561C129.105 346.591 129.128 346.621 129.152 346.652Z" fill="#1E3A8A"/>
<path d="M125.258 337.677C120.874 345.01 116.93 352.843 114.198 362.046C116.636 352.52 120.643 344.757 125.258 337.677Z" fill="#1E3A8A"/>
<path d="M137.119 344.012C136.875 345.806 131.425 357.148 129.593 359.683C130.847 357.093 132.095 354.495 133.356 351.914C134.63 349.305 135.781 346.546 137.119 344.012Z" fill="#1E3A8A"/>
<path d="M114.086 383.311C114.217 383.167 114.355 383.038 114.48 382.879C116.264 380.599 117.688 377.769 119.098 374.926C120.205 372.694 121.272 370.411 122.358 368.152C122.435 367.991 122.524 367.845 122.702 367.809C121.87 369.656 121.072 371.547 120.196 373.34C118.972 375.846 117.714 378.315 116.417 380.726C115.911 381.667 115.263 382.418 114.668 383.233C114.545 383.402 114.371 383.468 114.221 383.581C114.176 383.491 114.131 383.401 114.086 383.311Z" fill="#1E3A8A"/>
<path d="M122.429 354.353C120.17 358.951 117.775 363.825 115.538 368.381C116.008 366.459 120.422 357.037 122.429 354.353Z" fill="#1E3A8A"/>
<path d="M134.345 329.759C132.383 332.665 130.42 335.572 128.566 338.316C129.602 335.718 133.271 330.095 134.345 329.759Z" fill="#1E3A8A"/>
<path d="M120.749 373.791C119.421 377.415 117.6 380.698 116.919 380.898C118.171 378.574 119.46 376.183 120.749 373.791Z" fill="#1E3A8A"/>
<path d="M133.316 329.42C134.756 329.431 136.184 329.427 137.569 329.931C139.11 330.49 139.849 332.302 139.712 335.085C139.609 337.169 139.21 339.149 138.522 340.977C137.109 344.732 136.025 348.692 135.025 352.73C132.974 361.01 129.393 367.392 125.021 372.777C122.467 375.922 119.678 378.392 116.948 381.032C114.153 383.732 111.414 386.569 108.818 389.79C108.309 390.422 107.777 391.025 107.22 391.522C106.495 392.166 106.11 391.773 106.135 390.488C106.145 389.994 106.179 389.471 106.284 388.998C107.594 383.089 108.358 377.001 109.419 371.011C111.356 360.073 114.86 350.502 119.862 342.199C122.662 337.55 125.799 333.74 129.436 331.133C130.69 330.234 131.99 329.675 133.316 329.42ZM106.67 391.304C106.971 391.045 107.282 390.843 107.55 390.534C108.449 389.5 109.329 388.421 110.222 387.372C113.465 383.564 116.92 380.349 120.357 377.091C122.3 375.249 124.149 373.184 125.914 370.905C128.491 367.579 130.707 363.705 132.533 359.267C133.764 356.273 134.611 353.013 135.404 349.721C135.932 347.524 136.518 345.372 137.288 343.335C137.719 342.196 138.103 341.014 138.49 339.838C139.015 338.246 139.309 336.56 139.356 334.819C139.414 332.685 138.921 331.214 137.758 330.675C136.162 329.936 134.491 329.832 132.807 330.141C131.546 330.373 130.32 331.073 129.138 331.976C125.773 334.547 122.837 338.12 120.205 342.451C114.458 351.908 110.795 362.984 109.014 375.573C108.549 378.862 107.976 382.127 107.417 385.392C107.189 386.724 106.854 388.019 106.593 389.342C106.471 389.958 106.382 390.602 106.67 391.304Z" fill="#1E3A8A"/>
<path d="M100.276 373.768C100.221 372.575 100.176 371.378 100.107 370.187C99.8777 366.264 100.287 362.362 100.788 358.466C101.376 353.892 102.051 349.331 102.582 344.749C102.88 342.179 102.964 339.577 103.14 336.989C103.145 336.911 103.113 336.832 103.079 336.655C102.975 337.975 102.865 339.19 102.786 340.406C102.53 344.298 101.949 348.138 101.411 351.987C100.902 355.627 100.426 359.276 100.011 362.932C99.6295 366.29 99.7072 369.624 100.129 372.908C100.167 373.197 100.183 373.492 100.209 373.784C100.231 373.779 100.254 373.774 100.276 373.768Z" fill="#1E3A8A"/>
<path d="M99.904 328.02C100.255 331.556 100.374 335.126 100.33 338.712C100.286 342.247 100.143 345.789 100.053 348.991C100.792 344.845 100.962 329.672 99.904 328.02Z" fill="#1E3A8A"/>
<path d="M101.142 382.045C98.766 374.044 98.2577 365.575 99.0632 356.773C98.5264 361.274 98.3695 365.764 98.7526 370.207C99.1092 374.343 99.8129 378.341 101.142 382.045Z" fill="#1E3A8A"/>
<path d="M106.824 357.599C107.241 356.931 107.506 356.155 107.679 355.346C108.098 353.383 108.494 351.41 108.862 349.43C109.064 348.342 109.189 347.233 109.25 346.11C108.897 348.021 108.579 349.946 108.178 351.842C107.772 353.766 107.284 355.662 106.824 357.599Z" fill="#1E3A8A"/>
<path d="M105.585 391.613C105.935 391.036 105.849 390.47 105.771 389.914C105.677 389.242 105.567 388.576 105.465 387.907C105.057 385.24 105.415 382.564 105.81 379.908C106.446 375.641 107.561 371.561 108.844 367.558C110.244 363.195 111.586 358.809 112.613 354.259C113.839 348.827 114.213 343.346 113.534 337.912C112.88 332.675 111.452 327.891 109.028 323.869C107.911 322.014 106.551 320.583 104.956 319.603C104.36 319.237 103.743 318.964 103.056 319.058C101.61 319.258 100.6 320.469 100.248 322.5C99.9527 324.201 99.726 325.961 99.8817 327.641C100.222 331.315 99.5179 334.79 98.7242 338.284C97.9733 341.587 97.1801 344.878 96.514 348.209C95.9338 351.111 95.7823 354.084 95.7863 357.05C95.7951 363.251 96.7684 369.116 98.2232 374.8C99.0064 377.859 99.8082 380.91 100.67 383.921C101.212 385.815 101.926 387.593 102.852 389.149C103.301 389.905 103.846 390.556 104.385 391.191C104.703 391.563 105.097 391.799 105.585 391.613ZM105.406 391.155C105.023 391.204 104.716 390.996 104.483 390.677C103.889 389.865 103.229 389.104 102.777 388.143C102.056 386.608 101.415 384.975 100.865 383.294C100.28 381.505 99.8216 379.621 99.3381 377.76C97.8917 372.195 96.5967 366.569 96.2564 360.512C96.005 356.036 96.1605 351.583 97.0722 347.173C97.7048 344.111 98.4533 341.089 99.1468 338.048C99.9235 334.642 100.571 331.242 100.243 327.665C100.092 326.013 100.297 324.285 100.599 322.613C101.007 320.349 102.405 319.098 103.954 319.691C104.615 319.944 105.251 320.37 105.844 320.842C107.678 322.302 109.076 324.411 110.17 326.927C111.387 329.724 112.305 332.717 112.741 336.016C112.909 337.286 112.949 338.571 112.849 339.88C112.674 342.168 112.03 344.261 111.211 346.25C110.473 348.045 109.671 349.794 108.851 351.522C107.237 354.919 105.845 358.458 104.988 362.34C104.165 366.071 103.691 369.879 103.396 373.717C103.168 376.678 103.308 379.578 103.866 382.385C104.348 384.811 104.874 387.217 105.378 389.634C105.478 390.115 105.564 390.6 105.406 391.155ZM104.875 384.771C104.792 384.601 104.709 384.5 104.685 384.373C104.378 382.738 103.977 381.13 103.801 379.456C103.468 376.292 103.638 373.085 104.155 369.897C104.79 365.988 105.908 362.309 107.273 358.758C108.278 356.145 109.339 353.572 110.349 350.963C111.288 348.542 112.153 346.073 112.642 343.412C112.876 342.139 113.05 340.849 113.272 339.435C113.317 339.756 113.361 339.953 113.371 340.155C113.488 342.497 113.528 344.843 113.337 347.21C113.047 350.801 112.337 354.278 111.391 357.664C110.367 361.332 109.247 364.954 108.133 368.576C106.533 373.778 105.35 379.11 104.875 384.771Z" fill="#1E3A8A"/>
</g>
<defs>
<filter id="filter0_d_364_49" x="0" y="0.145386" width="209.644" height="413.707" filterUnits="userSpaceOnUse" color-interpolation-filters="sRGB">
<feFlood flood-opacity="0" result="BackgroundImageFix"/>
<feColorMatrix in="SourceAlpha" type="matrix" values="0 0 0 0 0 0 0 0 0 0 0 0 0 0 0 0 0 0 127 0" result="hardAlpha"/>
<feOffset/>
<feGaussianBlur stdDeviation="10"/>
<feComposite in2="hardAlpha" operator="out"/>
<feColorMatrix type="matrix" values="0 0 0 0 0 0 0 0 0 0 0 0 0 0 0 0 0 0 0.25 0"/>
<feBlend mode="normal" in2="BackgroundImageFix" result="effect1_dropShadow_364_49"/>
<feBlend mode="normal" in="SourceGraphic" in2="effect1_dropShadow_364_49" result="shape"/>
</filter>
<linearGradient id="paint0_linear_364_49" x1="104.822" y1="7" x2="104.822" y2="405.214" gradientUnits="userSpaceOnUse">
<stop stop-color="#FFD5DD"/>
<stop offset="1" stop-color="#B7D3F4"/>
</linearGradient>
<clipPath id="clip0_364_49">
<rect width="54.9883" height="80.8513" fill="white" transform="matrix(0.699057 0.715066 -0.669988 0.742372 104.376 8.89185)"/>
</clipPath>
<clipPath id="clip1_364_49">
<rect width="54.623" height="81.3823" fill="white" transform="matrix(-0.771915 -0.635726 0.587831 -0.808983 103.033 404.567)"/>
</clipPath>
</defs>
</svg>
