<svg width="54" height="84" viewBox="0 0 54 84" fill="none" xmlns="http://www.w3.org/2000/svg">
<path d="M40.4096 17.8603C38.6527 17.5226 36.8966 17.1947 35.1384 16.844C32.7944 16.3767 30.4537 15.9465 28.1017 15.3998C24.8426 14.6421 21.5741 13.3578 18.3083 11.818C17.7265 11.5439 17.143 11.2907 16.5459 11.1177C16.7658 11.2396 16.9847 11.3686 17.2056 11.4812C22.0027 13.927 26.7848 15.6003 31.5533 16.4331C34.0758 16.8736 36.6037 17.3511 39.1275 17.8031C39.5605 17.8806 39.9873 17.9123 40.4165 17.965C40.4148 17.93 40.4123 17.895 40.4096 17.8603Z" fill="#1E3A8A"/>
<path d="M42.6757 25.9107C37.0153 24.9289 31.342 23.3336 25.6335 20.0555C31.3459 23.7376 37.0183 25.2449 42.6757 25.9107Z" fill="#1E3A8A"/>
<path d="M45.6645 13.4993C44.6969 12.6469 36.6133 10.1445 34.4973 10.0388C36.3483 10.6039 38.1996 11.1775 40.0497 11.7313C41.9196 12.2911 43.7981 13.0289 45.6645 13.4993Z" fill="#1E3A8A"/>
<path d="M15.5635 7.90079C15.6974 7.88644 15.828 7.85925 15.9654 7.85849C17.9373 7.85208 19.9865 8.42933 22.0349 9.02366C23.6436 9.49066 25.2554 10.017 26.8658 10.5151C26.9804 10.5506 27.0939 10.569 27.2007 10.4578C25.9118 10.0097 24.6203 9.51045 23.3347 9.12521C21.5383 8.58732 19.7427 8.09564 17.9547 7.66625C17.2564 7.4987 16.5768 7.54513 15.8935 7.51555C15.7523 7.50946 15.6336 7.59982 15.5046 7.64581C15.5239 7.73062 15.5438 7.81554 15.5635 7.90079Z" fill="#1E3A8A"/>
<path d="M33.398 18.398C30.096 17.4201 26.5958 16.3839 23.324 15.4148C24.4654 16.1737 31.1241 18.3361 33.398 18.398Z" fill="#1E3A8A"/>
<path d="M50.9768 23.7417C48.6204 23.5187 46.2633 23.2957 44.0381 23.0853C45.783 23.8154 50.2775 24.3413 50.9768 23.7417Z" fill="#1E3A8A"/>
<path d="M23.3993 8.45453C21.0246 7.34992 18.562 6.80485 18.125 7.19281C19.8496 7.60533 21.6242 8.02971 23.3993 8.45453Z" fill="#1E3A8A"/>
<path d="M50.6166 24.7063C51.3369 23.6356 52.0578 22.5829 52.5183 21.2694C53.0306 19.809 52.5501 18.2199 51.1709 16.7198C50.1379 15.5965 49.0045 14.7515 47.7974 14.2072C45.3184 13.0897 42.9079 11.6113 40.5038 10.026C35.5729 6.77529 30.7647 5.74789 26.0282 5.87826C23.2615 5.9547 20.6941 6.59371 18.0767 7.0917C15.3986 7.60209 12.6833 7.99265 9.85954 8.05691C9.30603 8.06941 8.7541 8.11476 8.23961 8.24088C7.57148 8.40529 7.56232 8.91643 8.18011 9.637C8.41794 9.91426 8.68135 10.19 8.95644 10.3844C12.3979 12.8179 15.6488 15.7579 19.0033 18.4221C25.128 23.2865 31.3987 26.2069 37.8262 27.291C41.4246 27.898 44.7983 27.7734 47.8565 26.5868C48.9117 26.1776 49.8292 25.5391 50.6166 24.7063ZM8.0654 8.77236C8.33835 8.69908 8.5909 8.58535 8.871 8.5649C9.8102 8.49619 10.7615 8.46715 11.7048 8.41116C15.1306 8.20685 18.3839 7.5051 21.6485 6.84075C23.4945 6.46552 25.3979 6.28796 27.359 6.29579C30.2225 6.30677 33.1621 6.89881 36.1712 8.10497C38.2004 8.91817 40.162 10.1686 42.1108 11.4784C43.4114 12.3526 44.7194 13.1587 46.0665 13.7617C46.8195 14.0989 47.5692 14.4959 48.3176 14.8866C49.3314 15.4156 50.2736 16.1684 51.1171 17.1356C52.1504 18.3208 52.5948 19.5319 52.2629 20.7015C51.8072 22.3057 51.0147 23.6008 50.0213 24.6671C49.277 25.4656 48.3303 25.968 47.3093 26.3216C44.4048 27.3277 41.2441 27.4404 37.8804 26.8922C30.534 25.6945 23.4752 22.026 16.6518 16.0951C14.8688 14.5457 13.0435 13.0891 11.225 11.6232C10.4831 11.0251 9.70452 10.527 8.95033 9.95895C8.59902 9.69408 8.25064 9.38898 8.0654 8.77236Z" fill="#1E3A8A"/>
<path d="M12.6271 62.8224C12.3609 60.1307 12.105 57.4417 11.8256 54.7461C11.4533 51.1527 11.1193 47.5695 10.665 43.9525C10.0353 38.9406 8.85944 33.8388 7.41848 28.7045C7.16194 27.7897 6.92726 26.8756 6.77637 25.9525C6.89227 26.3009 7.01576 26.6486 7.12184 26.9971C9.42959 34.5653 10.9364 42.0001 11.5715 49.2937C11.9074 53.1519 12.2815 57.0235 12.6292 60.8853C12.6888 61.5479 12.7013 62.1946 12.7353 62.8478C12.6991 62.8401 12.6628 62.8314 12.6271 62.8224Z" fill="#1E3A8A"/>
<path d="M20.8647 67.3852C20.1178 58.7285 18.7347 49.9641 15.6072 40.9054C19.1539 50.0281 20.4455 58.7785 20.8647 67.3852Z" fill="#1E3A8A"/>
<path d="M7.84218 70.1002C7.00398 68.522 4.79555 56.0014 4.7876 52.8027C5.28503 55.6687 5.79131 58.5361 6.27725 61.3992C6.76822 64.2927 7.44374 67.2249 7.84218 70.1002Z" fill="#1E3A8A"/>
<path d="M3.47398 24.0123C3.4526 24.2116 3.41811 24.4041 3.41071 24.6108C3.3093 27.5766 3.8099 30.7425 4.32829 33.9095C4.73558 36.3966 5.20437 38.897 5.64395 41.3914C5.67521 41.5689 5.6888 41.7422 5.56831 41.8869C5.16529 39.8835 4.70917 37.8688 4.37118 35.8794C3.89931 33.0997 3.47531 30.3276 3.11566 27.5759C2.97531 26.5013 3.05617 25.4857 3.05826 24.4535C3.05877 24.24 3.15823 24.0745 3.21215 23.8871C3.2993 23.9283 3.3864 23.9705 3.47398 24.0123Z" fill="#1E3A8A"/>
<path d="M13.5181 52.3516C12.662 47.2434 11.7549 41.8287 10.9062 36.7672C11.639 38.5935 13.5631 48.9217 13.5181 52.3516Z" fill="#1E3A8A"/>
<path d="M18.2281 79.5673C18.11 75.9903 17.9918 72.4121 17.8804 69.0342C18.5541 71.7641 18.884 78.6016 18.2281 79.5673Z" fill="#1E3A8A"/>
<path d="M3.67552 35.8828C2.64334 32.1514 2.19604 28.3683 2.61955 27.7666C2.96482 30.4205 3.31996 33.1512 3.67552 35.8828Z" fill="#1E3A8A"/>
<path d="M19.2369 79.1643C18.0911 80.0941 16.964 81.0274 15.5788 81.5315C14.0386 82.0924 12.4125 81.1413 10.9219 78.8507C9.80585 77.1353 8.9834 75.3089 8.47649 73.4146C7.43594 69.5246 6.01761 65.6859 4.48793 61.8413C1.3512 53.9561 0.516145 46.575 0.879001 39.4678C1.0913 35.3165 1.87783 31.5459 2.5205 27.6796C3.17879 23.724 3.71462 19.6953 3.91705 15.4562C3.95658 14.6253 4.03017 13.8015 4.18586 13.0456C4.38852 12.0641 4.9194 12.1238 5.63754 13.1567C5.9139 13.5543 6.18741 13.9902 6.37588 14.432C8.73601 19.9591 11.6308 25.2721 14.2345 30.7015C18.9884 40.6146 21.7179 50.468 22.5339 60.2934C22.991 65.7943 22.6995 70.8516 21.3211 75.282C20.8457 76.8108 20.139 78.0993 19.2369 79.1643ZM4.74577 12.8599C4.65655 13.26 4.52641 13.6236 4.49179 14.042C4.37534 15.4452 4.29939 16.8722 4.19601 18.2832C3.81931 23.4078 2.93469 28.2013 2.08841 33.0172C1.61025 35.7405 1.33455 38.5785 1.24842 41.53C1.12216 45.8395 1.59533 50.3469 2.70248 55.0471C3.4488 58.2169 4.6523 61.3475 5.91782 64.4674C6.7626 66.5497 7.53635 68.6334 8.09741 70.7467C8.4111 71.9278 8.78713 73.1128 9.15657 74.2949C9.65691 75.8962 10.3928 77.4216 11.3561 78.8295C12.5365 80.5546 13.7719 81.3968 15.0016 81.0656C16.6884 80.6106 18.0706 79.6044 19.2248 78.2629C20.0893 77.2582 20.6562 75.906 21.0723 74.4209C22.2559 70.1957 22.5248 65.4569 22.1175 60.3177C21.2276 49.0934 17.7597 37.947 11.9325 26.8295C10.4104 23.9245 8.98647 20.9692 7.55245 18.0229C6.96738 16.8208 6.48791 15.5779 5.93465 14.3617C5.67666 13.7951 5.37679 13.2272 4.74577 12.8599Z" fill="#1E3A8A"/>
<path d="M19.8811 22.5648C20.6112 23.4726 21.3342 24.3901 22.0736 25.2869C24.5092 28.2406 26.4285 31.5936 28.2714 35.0013C30.4352 39.0023 32.5224 43.0499 34.7355 47.0202C35.9767 49.247 37.4065 51.3597 38.7543 53.5218C38.7948 53.5862 38.866 53.6279 38.9945 53.7462C38.3177 52.6336 37.7064 51.6013 37.071 50.5878C35.0357 47.343 33.2888 43.9268 31.5023 40.532C29.8122 37.3214 28.0923 34.1255 26.3191 30.9634C24.6905 28.0582 22.7131 25.4722 20.4916 23.1493C20.2966 22.9457 20.1139 22.7228 19.9256 22.5089C19.9104 22.5272 19.8958 22.546 19.8811 22.5648Z" fill="#1E3A8A"/>
<path d="M46.4684 58.5072C44.1584 55.9394 42.0126 53.1936 39.9867 50.3284C37.9896 47.5031 36.0668 44.6084 34.2979 42.0176C36.0963 45.7779 44.6824 57.8894 46.4684 58.5072Z" fill="#1E3A8A"/>
<path d="M14.4392 16.5824C20.9171 21.3631 26.1866 27.7306 30.6079 35.217C28.446 31.3077 25.9897 27.6542 23.1327 24.389C20.474 21.3505 17.6194 18.6463 14.4392 16.5824Z" fill="#1E3A8A"/>
<path d="M23.9956 39.6196C24.0499 40.4188 24.2855 41.2055 24.6142 41.9583C25.4113 43.7838 26.2317 45.6028 27.0788 47.4082C27.5442 48.3998 28.0824 49.3589 28.6798 50.2872C27.861 48.545 27.006 46.816 26.2331 45.0551C25.4488 43.2685 24.7455 41.4511 23.9956 39.6196Z" fill="#1E3A8A"/>
<path d="M5.42627 11.9087C5.48097 12.5925 5.87498 12.9843 6.25593 13.3739C6.71631 13.844 7.18612 14.2988 7.65144 14.7616C9.50635 16.6052 10.7615 18.9554 11.9753 21.3131C13.9252 25.1023 15.3883 29.0559 16.6739 33.0585C18.0743 37.4201 19.5335 41.7644 21.3363 46.0318C23.4883 51.1266 26.3433 55.7061 30.0031 59.562C33.5296 63.2781 37.4092 66.1313 41.6378 67.7342C43.5876 68.4731 45.486 68.7189 47.3104 68.4553C47.9922 68.3572 48.6378 68.1709 49.1261 67.6488C50.1553 66.5492 50.2585 64.9332 49.3698 63.0972C48.625 61.5592 47.7929 60.0194 46.7044 58.7924C44.3231 56.108 42.8831 52.9006 41.5032 49.6205C40.1984 46.5183 38.9348 43.3992 37.5469 40.3301C36.338 37.6569 34.7489 35.2064 33.0412 32.8631C29.4701 27.964 25.3299 23.9595 20.9124 20.4114C18.5344 18.5015 16.147 16.611 13.7349 14.7907C12.2181 13.646 10.6308 12.7052 9.0044 12.0768C8.21407 11.7716 7.40949 11.612 6.61797 11.4606C6.15273 11.3731 5.70566 11.4431 5.42627 11.9087ZM5.83127 12.1535C6.10575 11.866 6.46788 11.8303 6.83577 11.9308C7.77194 12.1862 8.7322 12.3578 9.64164 12.824C11.0945 13.5684 12.5394 14.4424 13.941 15.4138C15.4322 16.4475 16.8774 17.6395 18.3292 18.7961C22.6717 22.2558 26.9296 25.8624 30.6801 30.4317C33.4514 33.8082 35.8875 37.4313 37.701 41.5135C38.9603 44.3472 40.1054 47.2253 41.3043 50.0821C42.6478 53.2823 44.0897 56.3931 46.4042 59.0088C47.4734 60.2169 48.3048 61.7169 49.027 63.2362C50.0048 65.293 49.6184 67.1928 48.0525 67.7331C47.3844 67.964 46.6368 68.0412 45.896 68.0542C43.6067 68.0936 41.2882 67.3363 38.9766 66.0592C36.4072 64.6396 33.9602 62.8701 31.7198 60.5451C30.8568 59.6497 30.0869 58.6593 29.4138 57.5592C28.2372 55.6353 27.5434 53.5606 27.0477 51.4533C26.6006 49.5531 26.2291 47.6469 25.885 45.7462C25.2086 42.0081 24.2763 38.3015 22.7227 34.6738C21.2291 31.1864 19.4153 27.8654 17.4432 24.6371C15.9219 22.1465 14.1442 19.9444 12.0899 18.0879C10.3139 16.483 8.51498 14.9221 6.7273 13.3388C6.37188 13.0236 6.02496 12.6962 5.83127 12.1535ZM9.92014 16.8579C10.0837 16.9376 10.2076 16.9633 10.2998 17.0484C11.4818 18.1415 12.7231 19.1527 13.8244 20.3619C15.9064 22.6473 17.615 25.2948 19.038 28.1534C20.7825 31.6586 22.0131 35.2972 22.974 38.9953C23.6814 41.7167 24.3211 44.4425 25.0207 47.1641C25.6696 49.6907 26.405 52.2071 27.5471 54.6307C28.0934 55.7898 28.6979 56.9239 29.3349 58.1859C29.1146 57.9615 28.9668 57.8345 28.8425 57.6811C27.4038 55.9053 26.0241 54.0754 24.8148 52.0789C22.98 49.0501 21.5437 45.8367 20.3453 42.5429C19.0472 38.9747 17.8514 35.3801 16.651 31.7894C14.9264 26.6326 12.798 21.6446 9.92014 16.8579Z" fill="#1E3A8A"/>
</svg>
