<svg width="20" height="20" viewBox="0 0 20 20" fill="none" xmlns="http://www.w3.org/2000/svg">
<path d="M12.3704 10.8894L10.4141 9.75907V5.83329C10.4141 5.60319 10.2275 5.41663 9.9974 5.41663C9.76729 5.41663 9.58073 5.60319 9.58073 5.83329V9.99996C9.58078 10.1487 9.66018 10.2862 9.78906 10.3605L11.9538 11.6105C12.017 11.6473 12.0889 11.6667 12.1621 11.6666C12.3107 11.6665 12.448 11.5873 12.5224 11.4586C12.6376 11.2595 12.5696 11.0046 12.3704 10.8894ZM9.9974 1.66663C5.39504 1.66663 1.66406 5.3976 1.66406 9.99996C1.66406 14.6023 5.39504 18.3333 9.9974 18.3333C14.5975 18.3279 18.3253 14.6001 18.3307 9.99996C18.3307 5.3976 14.5998 1.66663 9.9974 1.66663ZM9.9974 17.5C5.85524 17.5 2.4974 14.1421 2.4974 9.99996C2.4974 5.85781 5.85524 2.49996 9.9974 2.49996C14.1377 2.50449 17.4929 5.85969 17.4974 9.99996C17.4974 14.1421 14.1395 17.5 9.9974 17.5Z" fill="#033A79"/>
</svg>
