<svg width="27" height="27" viewBox="0 0 27 27" fill="none" xmlns="http://www.w3.org/2000/svg">
<g clip-path="url(#clip0_326_235)">
<path d="M16.484 17.6509C16.3658 17.5302 16.2807 17.3663 16.1899 17.2188C16.0044 16.9216 15.8408 16.6113 15.7002 16.2904C15.5435 15.9452 15.2648 15.6701 14.9175 15.5181C14.5703 15.366 14.179 15.3478 13.8191 15.4669L13.454 15.5879C13.2281 14.7624 13.1165 13.9097 13.1224 13.0539C13.1346 12.1981 13.2642 11.348 13.5076 10.5274L13.8868 10.6075C14.2441 10.7341 14.6357 10.7242 14.9861 10.5795C15.3365 10.4348 15.621 10.1657 15.7849 9.82387C15.9342 9.50704 16.1043 9.20045 16.2942 8.90611C16.388 8.76048 16.4927 8.61497 16.6028 8.47495C16.9241 8.02991 17.0759 7.48478 17.0309 6.93775C16.9859 6.39071 16.7471 5.87771 16.3574 5.49113L14.7458 3.84499C14.5165 3.60634 14.2384 3.4199 13.9306 3.29836C13.6228 3.17681 13.2923 3.12303 12.9618 3.14066C12.6314 3.15829 12.3085 3.24692 12.0154 3.40052C11.7222 3.55413 11.4656 3.76909 11.263 4.03078C9.25042 6.57374 8.14243 9.71472 8.11402 12.9576C8.08561 16.2005 9.13841 19.3604 11.1061 21.9382L11.3103 22.1467C11.7058 22.5519 12.2368 22.7973 12.8017 22.8359C13.1269 22.8574 13.453 22.8098 13.7585 22.696C14.0639 22.5822 14.3417 22.4049 14.5735 22.1758L16.2197 20.5641C16.5942 20.1843 16.8254 19.6861 16.8736 19.1548C16.9218 18.6235 16.7841 18.092 16.484 17.6509ZM13.4603 21.1486C13.3823 21.2247 13.289 21.2834 13.1866 21.3207C13.0841 21.3581 12.9749 21.3731 12.8662 21.3649C12.7532 21.3554 12.6435 21.3225 12.544 21.2681C12.4445 21.2138 12.3575 21.1392 12.2885 21.0493C10.54 18.7363 9.61129 15.9071 9.64885 13.0079C9.68641 10.1087 10.6881 7.30446 12.4959 5.03757C12.5677 4.95014 12.6565 4.87819 12.7569 4.82605C12.8573 4.77391 12.9673 4.74267 13.0801 4.73423C13.189 4.72834 13.2979 4.74571 13.3995 4.78517C13.5012 4.82464 13.5932 4.88529 13.6696 4.9631L15.2813 6.60924C15.409 6.73406 15.4893 6.89952 15.5082 7.07713C15.5272 7.25475 15.4836 7.43341 15.385 7.58236C15.2565 7.75115 15.1352 7.92363 15.0211 8.09982C14.7939 8.4464 14.5923 8.80906 14.4178 9.18492L13.309 8.76592C13.2145 8.72974 13.1139 8.71258 13.0128 8.71541C12.9117 8.71824 12.8121 8.74101 12.7199 8.78242C12.6276 8.82383 12.5444 8.88305 12.4751 8.9567C12.4058 9.03034 12.3517 9.11695 12.316 9.21156C11.3976 11.6574 11.3691 14.3484 12.2355 16.8131C12.3114 17.0004 12.4581 17.1503 12.6438 17.2301C12.7353 17.2746 12.8347 17.3004 12.9362 17.3062C13.0378 17.3119 13.1395 17.2974 13.2354 17.2635L14.3366 16.8516C14.5129 17.2346 14.7121 17.6066 14.933 17.9657C15.0434 18.1443 15.161 18.3193 15.2859 18.4908C15.3813 18.6418 15.4211 18.8213 15.3984 18.9985C15.3757 19.1756 15.292 19.3394 15.1616 19.4615L13.4603 21.1486Z" fill="#033A79"/>
</g>
<defs>
<clipPath id="clip0_326_235">
<rect width="18.43" height="18.43" fill="white" transform="translate(13.1738) rotate(45.6062)"/>
</clipPath>
</defs>
</svg>
