<svg width="22" height="20" viewBox="0 0 22 20" fill="none" xmlns="http://www.w3.org/2000/svg">
<g clip-path="url(#clip0_326_226)">
<path d="M19.3592 4.59998H2.63922C2.39722 4.59998 2.19922 4.77998 2.19922 4.99998V15C2.19922 15.22 2.39722 15.4 2.63922 15.4H19.3592C19.6012 15.4 19.7992 15.22 19.7992 15V4.99998C19.7992 4.77998 19.6012 4.59998 19.3592 4.59998ZM18.3032 5.39998L10.9992 12.04L3.69522 5.39998H18.3032ZM3.07922 5.95998L7.52322 9.99998L3.07922 14.04V5.95998ZM3.71722 14.6L8.13922 10.58L10.6912 12.9C10.8672 13.06 11.1312 13.06 11.3072 12.9L13.8592 10.58L18.2812 14.6H3.71722ZM18.9192 14.04L14.4752 9.99998L18.9192 5.95998V14.04Z" fill="#033A79"/>
<path d="M176.881 -102V234.8H-215.599V-102H176.881ZM178.641 -103.6H-217.359V236.4H178.641V-103.6Z" fill="#0000FF"/>
</g>
<defs>
<clipPath id="clip0_326_226">
<rect width="22" height="20" fill="white"/>
</clipPath>
</defs>
</svg>
